<svg height="440pt" viewBox="0 -96 440 440" width="440pt" xmlns="http://www.w3.org/2000/svg"><path d="m152 208h32v16h-32zm0 0"/><path d="m152 88h32v104h-32zm0 0"/><path d="m200 160h128v16h-128zm0 0"/><path d="m72 200c14.546875.054688 27.226562 9.914062 30.863281 24h33.136719v-32h-136v32h41.136719c3.636719-14.085938 16.316406-23.945312 30.863281-24zm0 0"/><path d="m328 192h-128v32h128zm0 0"/><path d="m252.121094 0h-136.242188c-10.613281-.0273438-20.796875 4.195312-28.277344 11.71875l-4.28125 4.28125h201.359376l-4.28125-4.28125c-7.480469-7.523438-17.664063-11.7460938-28.277344-11.71875zm0 0"/><path d="m88 232c0 8.835938-7.164062 16-16 16s-16-7.164062-16-16 7.164062-16 16-16 16 7.164062 16 16zm0 0"/><path d="m344 120v32h46.550781l-5.328125-32zm0 0"/><path d="m32 120h72v16h-72zm0 0"/><path d="m72 32h224v8h-224zm0 0"/><path d="m400 232c0 8.835938-7.164062 16-16 16s-16-7.164062-16-16 7.164062-16 16-16 16 7.164062 16 16zm0 0"/><path d="m328 112v-80h-16v16c0 4.417969-3.582031 8-8 8h-240c-4.417969 0-8-3.582031-8-8v-16h-56v144h136v-96c0-4.417969 3.582031-8 8-8h48c4.417969 0 8 3.582031 8 8v64h128zm-208 0v32c0 4.417969-3.582031 8-8 8h-88c-4.417969 0-8-3.582031-8-8v-64c0-4.417969 3.582031-8 8-8h88c4.417969 0 8 3.582031 8 8zm192 8c0 4.417969-3.582031 8-8 8h-80c-4.417969 0-8-3.582031-8-8v-40c0-4.417969 3.582031-8 8-8h80c4.417969 0 8 3.582031 8 8zm0 0"/><path d="m414.863281 224h17.136719v-35.472656l-34.214844-20.527344h-53.785156v56h9.136719c3.589843-14.113281 16.300781-23.992188 30.863281-23.992188s27.273438 9.878907 30.863281 23.992188zm0 0"/><path d="m344 32v72h84.6875l11.3125-11.3125v-17.375l-43.3125-43.3125zm32 56h-16v-16h16zm32 0h-16v-16h16zm0 0"/><path d="m232 88h24v24h-24zm0 0"/><path d="m272 88h24v24h-24zm0 0"/><path d="m32 88h72v16h-72zm0 0"/></svg>