<?xml version="1.0" standalone="no"?>
<!DOCTYPE svg PUBLIC "-//W3C//DTD SVG 20010904//EN"
 "http://www.w3.org/TR/2001/REC-SVG-20010904/DTD/svg10.dtd">
<svg version="1.0" xmlns="http://www.w3.org/2000/svg"
 width="177.000000pt" height="71.000000pt" viewBox="0 0 177.000000 71.000000"
 preserveAspectRatio="xMidYMid meet">

<g transform="translate(0.000000,71.000000) scale(0.100000,-0.100000)"
fill="#000000" stroke="none">
<path d="M0 355 l0 -355 885 0 885 0 0 355 0 355 -885 0 -885 0 0 -355z m906
254 c-6 -35 -4 -37 25 -43 54 -11 72 -7 101 21 34 33 46 26 17 -11 -12 -15
-20 -28 -18 -29 2 -1 22 -11 43 -22 55 -28 26 -31 -82 -10 -106 21 -216 16
-284 -14 -60 -25 -63 -19 -5 10 23 12 43 23 45 24 2 2 -4 15 -14 29 -23 37
-11 44 22 11 19 -19 33 -25 50 -21 l23 6 -24 37 c-14 20 -23 38 -20 41 7 8 35
-19 51 -50 22 -43 44 -36 44 15 0 23 3 53 7 66 l6 25 9 -25 c5 -13 7 -40 4
-60z m74 -4 c-12 -19 -26 -35 -31 -35 -11 0 8 50 29 73 25 28 27 2 2 -38z
m-603 -36 c46 -17 73 -49 73 -85 0 -40 -12 -45 -78 -32 -53 11 -137 4 -147
-12 -3 -5 7 -16 24 -24 69 -36 35 -139 -50 -152 -32 -5 -39 -11 -44 -36 -4
-16 -5 -32 -2 -35 11 -11 100 39 138 77 23 23 46 39 53 37 48 -20 46 -22 46
33 0 66 13 90 48 90 16 0 33 5 39 11 15 15 67 3 88 -21 16 -18 20 -18 46 -5
39 21 73 19 94 -5 l18 -20 14 20 c18 25 57 26 82 1 19 -19 20 -19 36 -1 18 20
121 26 142 8 9 -7 22 -7 44 2 26 11 33 11 46 -3 14 -14 18 -14 42 4 14 10 40
22 58 25 26 5 37 1 57 -19 l26 -26 0 25 c0 40 51 84 97 84 44 0 63 -14 63 -47
0 -14 6 -23 15 -23 8 0 24 -9 34 -19 16 -16 20 -17 25 -5 7 18 46 18 71 0 16
-11 24 -11 51 0 63 26 89 -14 59 -92 -12 -32 -15 -58 -10 -90 6 -42 5 -45 -22
-55 -20 -7 -38 -7 -64 0 -20 6 -49 11 -65 11 -16 0 -39 7 -52 15 -19 14 -24
14 -47 -1 -15 -10 -41 -18 -58 -19 -18 -2 -48 -6 -68 -10 -23 -4 -45 -2 -59 5
-16 9 -25 9 -33 1 -17 -17 -79 -13 -114 8 -18 12 -34 31 -37 48 -5 22 -13 28
-36 30 -27 2 -29 -1 -32 -35 -3 -36 -4 -37 -53 -45 -81 -13 -208 -8 -225 9 -9
9 -18 8 -38 -2 -34 -18 -103 -18 -127 -1 -15 12 -22 12 -45 0 -20 -9 -35 -11
-53 -4 -34 13 -65 4 -109 -34 -44 -37 -125 -64 -216 -72 -60 -5 -69 -3 -87 16
-16 18 -17 25 -7 41 7 11 12 42 12 69 0 27 4 60 9 73 4 13 11 43 15 68 6 42 5
46 -24 62 -23 13 -30 24 -30 48 0 57 82 114 116 81 5 -6 36 0 79 14 77 26 129
30 172 14z m299 -483 c204 -37 299 -41 464 -22 l45 6 -50 -16 c-65 -22 -364
-25 -482 -5 -70 11 -83 16 -83 32 0 23 6 23 106 5z"/>
<path d="M201 524 c-52 -17 -77 -22 -85 -14 -27 27 -80 -9 -74 -52 2 -17 10
-24 32 -26 l28 -4 -7 -56 c-3 -31 -11 -73 -16 -92 -6 -19 -9 -57 -7 -85 2 -35
-1 -53 -11 -61 -12 -10 -11 -13 7 -23 39 -21 210 26 262 72 14 13 42 30 62 39
32 15 38 15 48 2 14 -16 29 -18 48 -5 11 7 11 12 1 29 -11 17 -8 25 24 63 38
44 46 76 25 97 -18 18 -38 15 -38 -5 -1 -10 -7 -29 -15 -43 l-14 -25 -1 33 c0
27 -4 32 -25 32 -24 0 -25 -2 -25 -63 0 -59 -2 -64 -31 -81 -30 -18 -30 -18
-36 3 -3 12 -7 21 -9 21 -2 0 -22 -18 -43 -39 -40 -40 -118 -81 -152 -81 -16
0 -19 8 -19 53 0 59 23 111 63 141 42 31 44 10 2 -29 -20 -20 -35 -38 -33 -41
7 -7 60 15 80 33 36 32 7 90 -38 79 -28 -7 -28 -7 -8 42 14 37 18 40 67 45 29
4 76 3 105 -2 46 -7 52 -6 52 10 0 10 -12 27 -26 38 -36 29 -100 27 -193 -5z
m-62 -96 c-17 -34 -19 -34 -19 -5 0 18 5 27 15 27 13 0 14 -4 4 -22z"/>
<path d="M1315 460 c-17 -19 -17 -22 -3 -36 13 -14 19 -13 51 6 47 28 48 50 4
50 -21 0 -41 -8 -52 -20z"/>
<path d="M1141 391 c-44 -41 -40 -79 9 -103 31 -16 47 -38 28 -38 -5 0 -15 0
-23 0 -9 0 -27 11 -40 24 -19 19 -25 21 -29 9 -10 -26 -6 -43 14 -63 36 -36
120 -19 120 25 0 16 -47 55 -66 55 -19 0 -18 40 2 68 22 32 37 17 19 -18 -19
-36 -19 -40 -1 -40 23 0 57 51 54 79 -5 39 -46 40 -87 2z"/>
<path d="M1396 392 c-47 -28 -70 -66 -70 -118 -1 -61 18 -75 68 -51 19 9 42
30 51 47 21 40 35 38 35 -5 0 -29 5 -37 26 -45 14 -6 27 -10 28 -10 2 0 6 17
10 38 3 22 16 48 32 63 l26 24 -8 -30 c-5 -16 -9 -46 -9 -65 0 -32 3 -35 31
-38 l32 -3 -5 43 c-3 30 2 58 16 92 13 30 18 53 13 58 -11 11 -65 -13 -101
-46 -23 -20 -24 -20 -16 -1 13 36 11 50 -10 50 -13 0 -25 -11 -34 -32 -20 -44
-39 -42 -43 5 -4 44 -26 51 -72 24z m54 -28 c0 -14 -12 -19 -23 -8 -9 9 4 35
14 28 5 -3 9 -12 9 -20z m-49 -86 c-13 -10 -27 -18 -32 -18 -14 0 -11 37 7 78
l16 37 16 -39 c15 -38 15 -40 -7 -58z"/>
<path d="M601 371 c-47 -44 -67 -121 -39 -149 19 -19 82 -14 112 9 l27 22 15
-22 c20 -28 45 -27 75 5 l24 26 5 -29 c4 -23 10 -28 35 -28 29 0 30 1 26 44
-1 26 4 59 14 82 17 37 15 69 -4 69 -5 0 -26 -26 -45 -59 -20 -32 -43 -64 -51
-71 -25 -21 -29 13 -7 63 15 33 17 48 9 56 -21 21 -35 11 -60 -42 -31 -65 -47
-79 -95 -81 -34 -1 -37 1 -40 30 -2 19 4 40 17 55 26 32 37 18 15 -20 -22 -37
-13 -49 21 -27 26 17 41 56 31 81 -9 24 -51 17 -85 -14z"/>
<path d="M938 378 c-21 -33 -38 -86 -38 -120 0 -21 6 -31 26 -38 34 -13 34
-14 34 18 1 15 9 42 19 61 17 32 18 32 24 12 4 -16 12 -22 27 -19 26 4 59 83
42 100 -13 13 -77 -24 -86 -49 -4 -9 -9 -13 -13 -10 -3 4 0 13 7 22 15 18 7
45 -14 45 -7 0 -20 -10 -28 -22z"/>
<path d="M1270 348 c-13 -29 -24 -73 -24 -98 -1 -43 0 -45 30 -48 l32 -3 -5
43 c-3 30 2 58 16 91 23 52 21 67 -8 67 -13 0 -26 -17 -41 -52z"/>
</g>
</svg>
