<?xml version="1.0" standalone="no"?>
<!DOCTYPE svg PUBLIC "-//W3C//DTD SVG 20010904//EN"
 "http://www.w3.org/TR/2001/REC-SVG-20010904/DTD/svg10.dtd">
<svg version="1.0" xmlns="http://www.w3.org/2000/svg"
 width="320.000000pt" height="97.000000pt" viewBox="0 0 320.000000 97.000000"
 preserveAspectRatio="xMidYMid meet">

<g transform="translate(0.000000,97.000000) scale(0.100000,-0.100000)"
fill="#000000" stroke="none">
<path d="M435 943 c-163 -22 -305 -135 -373 -296 -22 -52 -26 -77 -26 -157 0
-85 3 -103 32 -170 35 -82 100 -164 166 -210 51 -34 141 -70 176 -70 14 0 -7
11 -49 26 -202 69 -319 235 -309 442 7 148 71 263 191 346 57 39 166 76 224
76 18 0 33 5 33 10 0 10 -9 10 -65 3z"/>
<path d="M579 919 c101 -26 152 -52 215 -110 65 -59 86 -65 31 -8 -76 77 -206
140 -288 138 -22 0 -9 -6 42 -20z"/>
<path d="M363 896 c-100 -32 -199 -119 -255 -222 -81 -150 -44 -357 87 -490
64 -65 149 -107 224 -110 l56 -3 -54 10 c-66 11 -149 52 -203 98 -134 115
-177 326 -99 485 123 250 427 311 649 129 24 -19 45 -33 48 -30 9 9 -98 89
-156 116 -45 21 -72 26 -155 28 -65 2 -115 -2 -142 -11z"/>
<path d="M367 860 c-98 -31 -180 -107 -234 -218 -29 -60 -35 -85 -36 -141 -2
-148 87 -298 216 -361 34 -16 78 -32 97 -35 40 -6 25 2 -52 30 -187 66 -294
289 -227 472 91 245 366 333 580 186 28 -19 53 -32 56 -29 10 10 -89 71 -150
93 -77 28 -171 29 -250 3z"/>
<path d="M403 639 c-35 -10 -93 -63 -93 -85 0 -23 16 -16 53 21 48 48 100 49
152 4 19 -17 35 -40 35 -50 0 -16 -8 -19 -50 -19 -38 0 -50 -4 -50 -15 0 -12
13 -15 55 -15 30 0 55 -2 55 -5 0 -4 -7 -19 -15 -35 -32 -61 -121 -79 -173
-35 -30 25 -62 33 -62 16 0 -18 61 -60 95 -67 106 -20 193 54 182 154 -10 91
-99 155 -184 131z"/>
<path d="M841 611 c-6 -21 -20 -49 -30 -62 -17 -21 -21 -22 -50 -10 -28 12
-31 18 -31 57 0 37 -3 44 -20 44 -17 0 -20 -7 -20 -43 0 -31 -6 -49 -20 -62
-11 -10 -20 -26 -20 -35 0 -10 9 -29 20 -43 13 -16 20 -40 20 -66 0 -30 4 -41
15 -41 11 0 15 12 15 44 0 33 4 45 18 49 9 2 24 8 33 11 12 5 20 -2 30 -25 18
-46 67 -99 90 -99 26 0 24 15 -6 34 -14 9 -36 39 -50 67 l-26 50 21 29 c26 36
52 110 46 127 -9 24 -23 14 -35 -26z m-106 -101 c32 -12 24 -30 -14 -30 -34 0
-44 9 -30 27 14 16 11 15 44 3z"/>
<path d="M1047 635 c-109 -38 -141 -163 -63 -241 56 -56 148 -58 205 -5 56 52
32 72 -26 21 -38 -34 -86 -39 -132 -15 -28 14 -61 68 -61 100 0 32 33 86 61
100 50 26 97 19 136 -20 46 -46 72 -44 43 2 -33 55 -102 80 -163 58z"/>
<path d="M1336 643 c-3 -3 -6 -24 -6 -45 0 -25 -7 -45 -20 -58 -11 -11 -20
-31 -20 -43 0 -13 9 -32 20 -42 14 -13 20 -31 20 -62 0 -32 4 -43 15 -43 11 0
15 11 15 43 0 38 3 44 31 54 29 11 32 10 47 -19 25 -45 72 -98 88 -98 21 0 17
23 -6 38 -11 6 -31 35 -45 63 l-26 51 24 37 c30 46 50 112 38 124 -13 13 -31
-1 -31 -25 0 -24 -37 -88 -51 -88 -6 0 -23 7 -39 15 -26 13 -30 21 -30 55 0
37 -10 56 -24 43z m39 -133 c34 -13 23 -30 -21 -30 -22 0 -34 5 -34 13 0 28
15 32 55 17z"/>
<path d="M1617 644 c-3 -3 16 -51 44 -106 29 -59 48 -107 44 -117 -6 -18 -45
-41 -70 -41 -8 0 -15 -7 -15 -16 0 -13 7 -15 33 -10 43 8 78 36 99 77 37 73
85 210 76 215 -17 11 -38 -20 -63 -92 -13 -38 -27 -69 -30 -69 -4 0 -25 36
-48 79 -40 76 -56 94 -70 80z"/>
<path d="M1968 637 c-56 -10 -75 -28 -43 -41 12 -4 15 -28 15 -126 0 -100 2
-120 15 -120 11 0 15 11 15 39 l0 39 55 4 c99 8 145 71 112 151 -23 55 -75 71
-169 54z m132 -47 c57 -57 -5 -139 -96 -128 -29 3 -29 4 -32 76 l-3 72 56 0
c42 0 60 -5 75 -20z"/>
<path d="M2350 643 c-96 -30 -130 -70 -130 -151 0 -43 5 -57 31 -87 57 -65
149 -71 214 -13 19 16 35 34 35 39 0 18 -32 8 -54 -17 -17 -20 -34 -28 -73
-31 -45 -5 -53 -2 -84 25 -31 28 -34 35 -34 87 0 51 3 59 33 86 26 23 42 29
78 29 40 0 51 -5 80 -36 19 -20 42 -34 51 -32 14 2 11 10 -17 41 -19 22 -43
42 -54 47 -40 14 -61 18 -76 13z"/>
<path d="M2586 643 c-3 -4 -6 -71 -6 -150 0 -183 5 -184 118 -33 46 61 87 108
92 105 6 -4 10 -53 10 -111 0 -87 3 -104 15 -104 13 0 15 21 13 147 -2 100 -7
148 -15 150 -6 2 -49 -45 -95 -106 -45 -60 -86 -110 -90 -110 -5 -1 -8 46 -8
103 0 80 -3 105 -14 109 -8 3 -17 3 -20 0z"/>
<path d="M2917 644 c-4 -4 -7 -72 -7 -151 0 -182 5 -184 118 -33 46 61 88 108
93 105 5 -4 9 -53 9 -111 0 -86 3 -104 15 -104 22 0 22 285 0 294 -10 3 -40
-29 -97 -104 -46 -60 -86 -109 -90 -110 -4 0 -9 48 -10 107 -3 98 -11 127 -31
107z"/>
<path d="M448 33 c7 -3 16 -2 19 1 4 3 -2 6 -13 5 -11 0 -14 -3 -6 -6z"/>
</g>
</svg>
