<?xml version="1.0" standalone="no"?>
<!DOCTYPE svg PUBLIC "-//W3C//DTD SVG 20010904//EN"
 "http://www.w3.org/TR/2001/REC-SVG-20010904/DTD/svg10.dtd">
<svg version="1.0" xmlns="http://www.w3.org/2000/svg"
 width="321.000000pt" height="79.000000pt" viewBox="0 0 321.000000 79.000000"
 preserveAspectRatio="xMidYMid meet">

<g transform="translate(0.000000,79.000000) scale(0.100000,-0.100000)"
fill="#000000" stroke="none">
<path d="M44 747 c-2 -7 -3 -170 -2 -362 l3 -350 222 -3 c123 -1 223 1 223 6
0 4 -29 38 -65 77 -46 49 -61 71 -52 77 7 5 0 8 -19 8 -41 0 -93 52 -74 75 17
20 33 19 55 -5 39 -43 125 -16 125 38 0 19 -6 22 -44 22 -59 0 -76 8 -76 35 0
27 17 35 76 35 42 0 44 2 44 28 0 39 -17 52 -65 52 -44 0 -65 -13 -65 -42 0
-13 -8 -18 -25 -18 -32 0 -41 22 -25 61 19 45 46 59 118 59 59 0 66 -3 93 -31
26 -28 29 -38 29 -95 0 -35 4 -64 9 -64 5 0 21 14 35 31 23 26 26 40 26 100
l0 70 -86 89 c-48 50 -84 90 -81 90 7 0 14 -6 156 -144 l93 -89 124 124 c68
68 124 127 124 131 0 14 -871 8 -876 -5z"/>
<path d="M829 624 c-76 -76 -138 -143 -136 -148 7 -22 24 -14 39 18 17 34 64
56 88 41 15 -10 12 -45 -5 -45 -8 0 -24 -19 -36 -41 l-21 -42 56 -56 56 -56 0
96 c0 91 1 96 28 122 25 24 36 27 93 27 58 0 68 -3 92 -28 18 -19 27 -39 27
-60 0 -29 -3 -32 -29 -32 -25 0 -30 4 -33 28 -3 24 -7 27 -46 30 -65 5 -72 -6
-72 -114 0 -82 2 -95 19 -104 45 -23 74 -12 149 58 l72 69 0 71 c0 40 5 74 11
77 10 7 -113 142 -184 203 l-28 25 -140 -139z"/>
<path d="M1020 752 c0 -4 56 -64 125 -132 l126 -124 124 124 c69 69 125 128
125 132 0 5 -112 8 -250 8 -137 0 -250 -4 -250 -8z"/>
<path d="M1451 644 c-107 -107 -113 -115 -82 -109 23 5 36 3 42 -6 14 -22 10
-36 -10 -42 -20 -5 -71 -93 -71 -122 0 -11 6 -14 24 -9 31 7 96 -47 96 -81 0
-36 -46 -85 -80 -85 -45 0 -87 51 -81 97 3 20 -18 53 -34 53 -10 0 -15 -17
-17 -67 l-3 -68 -30 0 -30 0 -5 78 -5 78 -35 -36 c-29 -30 -33 -38 -23 -54 10
-15 7 -23 -16 -45 -15 -15 -39 -26 -54 -26 -20 0 -44 -18 -99 -76 -40 -42 -74
-80 -76 -85 -8 -21 53 -7 87 20 64 51 109 50 173 -4 28 -24 36 -25 160 -25
l131 0 89 87 89 88 -48 0 c-42 0 -48 3 -51 22 -3 20 1 23 27 23 21 0 32 6 36
19 8 26 -15 61 -38 61 -25 0 -87 63 -87 87 0 10 7 29 16 41 9 13 13 31 9 43
-7 22 7 39 32 39 7 0 22 -18 33 -40 11 -22 26 -40 33 -40 6 0 20 -12 30 -25
14 -19 15 -29 7 -45 -6 -11 -7 -20 -2 -20 4 0 16 16 26 36 16 36 16 38 -10
105 -41 104 -25 119 77 73 57 -26 69 -40 50 -59 -11 -12 -123 -287 -118 -291
2 -2 37 30 77 71 l75 75 3 80 4 80 75 0 74 0 97 101 c53 55 99 105 100 110 5
13 -145 11 -170 -2 -14 -8 -23 -8 -31 0 -6 6 -38 11 -72 11 -57 0 -61 -2 -88
-36 -33 -40 -29 -54 7 -30 30 19 57 21 74 4 20 -20 14 -44 -24 -83 -26 -28
-38 -35 -47 -26 -8 8 -4 19 18 41 36 37 29 46 -19 23 -28 -13 -41 -15 -54 -7
-25 16 -26 57 -2 79 11 10 20 22 20 27 0 4 -37 8 -82 8 l-81 0 -116 -116z
m-236 -504 l41 -40 24 25 c25 26 50 33 50 13 0 -15 -60 -78 -74 -78 -18 0 -96
83 -96 102 0 26 10 22 55 -22z"/>
<path d="M2058 653 l-108 -107 30 -31 c27 -28 30 -37 30 -96 0 -59 3 -68 30
-94 l30 -29 0 95 c0 91 1 96 28 122 25 24 36 27 93 27 58 0 68 -3 92 -28 18
-19 27 -39 27 -60 0 -29 -3 -32 -29 -32 -25 0 -30 4 -33 28 -3 24 -7 27 -46
30 -64 5 -72 -6 -72 -105 0 -105 9 -123 58 -123 32 0 48 10 110 66 l72 66 0
72 c0 40 5 77 10 82 7 7 -24 45 -92 117 -57 59 -107 107 -112 107 -5 0 -58
-48 -118 -107z"/>
<path d="M2220 752 c0 -10 244 -252 255 -252 12 0 253 249 247 255 -9 8 -502
6 -502 -3z"/>
<path d="M2628 623 c-76 -76 -137 -142 -135 -147 8 -24 28 -14 47 23 17 34 25
41 50 41 l30 0 0 -98 0 -98 35 -34 34 -33 3 129 3 129 28 3 27 3 0 -107 c0
-68 4 -104 9 -98 6 5 34 52 64 104 49 85 58 95 84 95 l28 0 5 -92 c3 -51 4
-126 2 -168 l-4 -75 -29 0 c-26 0 -29 4 -29 30 0 17 -3 30 -7 30 -9 0 -213
-213 -213 -222 0 -18 61 -6 88 17 61 51 101 52 164 3 36 -28 39 -29 145 -26
l108 3 0 360 0 360 -172 3 c-95 1 -173 -1 -173 -6 0 -4 16 -23 35 -42 19 -19
35 -38 35 -43 0 -6 -24 13 -54 42 -30 28 -58 51 -62 51 -4 0 -70 -62 -146
-137z"/>
<path d="M1624 554 c3 -8 6 -18 6 -20 0 -3 5 -2 10 1 15 9 12 22 -6 29 -12 5
-15 2 -10 -10z"/>
<path d="M1276 470 c-39 -43 -47 -74 -19 -68 17 3 69 95 60 104 -2 3 -21 -14
-41 -36z"/>
<path d="M2441 474 c0 -11 3 -14 6 -6 3 7 2 16 -1 19 -3 4 -6 -2 -5 -13z"/>
<path d="M1830 470 c0 -5 5 -10 10 -10 6 0 10 5 10 10 0 6 -4 10 -10 10 -5 0
-10 -4 -10 -10z"/>
<path d="M1915 450 c32 -34 40 -32 31 5 -5 19 -13 25 -33 25 l-27 0 29 -30z"/>
<path d="M657 453 c-4 -3 -7 -17 -7 -30 0 -27 34 -33 44 -7 10 25 -20 55 -37
37z"/>
<path d="M1847 442 c-10 -10 -17 -31 -17 -45 0 -26 3 -27 49 -27 28 0 53 5 57
11 6 10 -52 79 -66 79 -4 0 -14 -8 -23 -18z"/>
<path d="M2451 446 c-7 -8 -11 -36 -9 -63 l3 -48 28 49 c21 37 25 52 16 62
-15 18 -24 18 -38 0z"/>
<path d="M1470 425 c0 -21 17 -45 32 -45 14 0 9 17 -12 41 -19 23 -19 23 -20
4z"/>
<path d="M2816 312 c-34 -62 -55 -107 -49 -113 5 -5 30 13 61 44 l53 54 -3 59
-3 59 -59 -103z"/>
<path d="M2489 295 c-51 -90 -56 -95 -84 -93 l-30 3 -5 78 -5 78 -35 -36 c-29
-30 -33 -38 -23 -54 10 -15 7 -23 -16 -45 -15 -14 -38 -26 -52 -26 -13 0 -31
-5 -39 -10 -12 -8 -1 -24 60 -85 l74 -75 139 0 139 0 74 72 c76 73 82 93 31
100 -13 2 -23 11 -25 24 -2 12 -19 36 -38 54 l-34 34 0 -57 c0 -57 0 -57 -30
-57 l-30 0 0 89 c0 50 -4 92 -9 95 -5 3 -33 -37 -62 -89z"/>
<path d="M740 369 c0 -23 62 -119 76 -119 25 0 13 -44 -13 -48 -36 -5 -58 14
-89 78 -19 40 -34 60 -46 60 -16 0 -18 -9 -18 -70 l0 -70 -30 0 -30 0 0 85 c0
47 -4 85 -8 85 -17 0 -62 -57 -62 -80 0 -13 -11 -38 -26 -57 -20 -26 -32 -33
-60 -33 -61 0 -55 -25 23 -101 l71 -69 142 0 142 0 69 67 c38 36 69 69 69 73
0 11 -192 210 -202 210 -4 0 -8 -5 -8 -11z"/>
<path d="M1672 262 l-82 -86 72 -73 72 -73 139 0 139 0 69 67 c38 36 69 69 69
73 0 4 -36 45 -79 90 -63 66 -82 81 -93 72 -8 -6 -43 -12 -78 -14 l-65 -3 -5
-55 c-5 -51 -7 -55 -32 -58 l-28 -3 0 70 c0 38 -4 72 -8 75 -4 2 -45 -34 -90
-82z"/>
<path d="M1360 308 c0 -18 28 -58 41 -58 18 0 5 42 -18 58 -19 12 -23 12 -23
0z"/>
<path d="M1517 102 c-31 -32 -57 -61 -57 -65 0 -4 52 -7 115 -7 63 0 115 4
115 8 0 4 -26 33 -58 65 l-58 57 -57 -58z"/>
<path d="M2117 102 c-31 -32 -57 -61 -57 -65 0 -4 52 -7 115 -7 63 0 115 4
115 8 0 4 -26 33 -58 65 l-58 57 -57 -58z"/>
</g>
</svg>
