<?xml version="1.0" standalone="no"?>
<!DOCTYPE svg PUBLIC "-//W3C//DTD SVG 20010904//EN"
 "http://www.w3.org/TR/2001/REC-SVG-20010904/DTD/svg10.dtd">
<svg version="1.0" xmlns="http://www.w3.org/2000/svg"
 width="293.000000pt" height="107.000000pt" viewBox="0 0 293.000000 107.000000"
 preserveAspectRatio="xMidYMid meet">

<g transform="translate(0.000000,107.000000) scale(0.100000,-0.100000)"
fill="#000000" stroke="none">
<path d="M1439 1028 c-6 -24 -8 -64 -4 -95 6 -49 5 -53 -15 -53 -11 0 -23 8
-26 18 -19 54 -32 75 -60 91 -23 14 -35 16 -43 8 -16 -16 -14 -42 4 -57 8 -7
15 -19 15 -26 0 -8 5 -14 11 -14 6 0 9 -10 7 -22 -2 -17 -10 -23 -29 -23 -16
0 -25 -4 -22 -11 3 -8 16 -8 48 -1 49 11 53 18 29 38 -18 14 -54 82 -54 100 0
22 59 -43 77 -84 15 -33 21 -38 46 -35 l28 3 2 85 c3 108 16 134 34 65 7 -28
10 -35 8 -16 -3 18 -5 42 -5 52 0 12 -7 19 -20 19 -14 0 -22 -11 -31 -42z"/>
<path d="M1583 983 c-17 -36 -13 -36 15 -2 15 19 19 29 10 29 -7 0 -19 -12
-25 -27z"/>
<path d="M1622 973 c-14 -48 -71 -118 -72 -89 0 15 -3 17 -11 9 -16 -16 -2
-33 27 -33 17 0 24 6 24 19 0 10 18 41 40 68 22 28 37 53 33 57 -15 15 -31 3
-41 -31z"/>
<path d="M1674 911 c-22 -27 -46 -52 -54 -54 -10 -3 -8 -5 5 -6 13 0 28 12 42
34 13 19 34 37 48 41 14 4 24 11 22 17 -8 25 -27 15 -63 -32z"/>
<path d="M1479 910 c-7 -35 -4 -48 7 -38 3 4 4 21 2 40 l-3 33 -6 -35z"/>
<path d="M1555 929 c-4 -6 -5 -12 -2 -15 2 -3 7 2 10 11 7 17 1 20 -8 4z"/>
<path d="M1217 923 c-2 -5 9 -18 24 -31 33 -27 38 -18 10 16 -20 23 -27 26
-34 15z"/>
<path d="M440 873 l-25 -15 30 7 c17 4 55 11 85 15 l55 7 -60 1 c-36 0 -70 -6
-85 -15z"/>
<path d="M630 881 c19 -4 46 -11 60 -15 24 -8 24 -8 5 8 -11 8 -38 15 -60 15
l-40 -1 35 -7z"/>
<path d="M1200 850 c0 -40 -2 -42 -49 -63 -27 -12 -54 -30 -61 -41 -9 -14 -9
-17 2 -14 7 3 22 2 34 -3 15 -5 26 -2 37 11 9 10 49 29 89 41 65 19 86 21 193
15 66 -4 151 -14 188 -22 38 -8 80 -14 95 -13 15 0 -25 12 -88 25 -80 16 -148
23 -225 24 -109 0 -153 -10 -290 -65 -37 -14 19 23 79 53 l54 27 -29 33 -29
32 0 -40z"/>
<path d="M1682 860 c-21 -17 -21 -19 -4 -24 10 -4 44 -22 75 -40 41 -25 54
-30 47 -16 -5 9 -27 25 -49 33 -29 12 -40 23 -43 41 -3 24 -3 24 -26 6z"/>
<path d="M280 851 c-112 -7 -151 -28 -181 -96 -32 -73 -3 -165 53 -165 15 0
18 -9 19 -62 1 -50 3 -57 9 -33 4 17 8 51 9 78 1 43 -1 47 -22 47 -34 0 -67
40 -67 81 0 90 122 175 179 125 14 -12 25 -10 76 10 33 12 51 22 40 22 -11 -1
-63 -4 -115 -7z"/>
<path d="M460 825 c-30 -8 -84 -26 -119 -40 l-63 -26 -15 20 c-21 30 -50 26
-89 -13 -54 -54 -45 -106 17 -106 l39 0 0 -67 c0 -38 -9 -104 -20 -148 -21
-87 -26 -179 -10 -219 8 -22 7 -26 -10 -26 -26 0 -33 -15 -14 -34 21 -21 79
-20 187 4 116 26 199 64 242 111 19 22 42 39 50 39 9 0 33 9 54 20 38 19 39
19 56 0 21 -24 68 -26 89 -5 13 14 12 18 -11 41 l-26 26 45 46 c62 65 78 91
78 130 0 28 -5 35 -35 48 -48 20 -55 18 -55 -16 0 -17 -8 -45 -17 -63 l-18
-32 -5 45 c-5 41 -8 45 -34 48 -16 2 -32 -2 -37 -10 -5 -7 -9 -51 -9 -98 -1
-76 -3 -87 -23 -101 -28 -21 -67 -33 -67 -22 0 5 -6 18 -14 28 -13 18 -17 16
-71 -39 -58 -58 -161 -117 -232 -131 -31 -6 -32 -6 -38 39 -14 93 19 190 86
250 43 40 77 49 60 17 -12 -22 -78 -81 -91 -81 -6 0 -10 -7 -10 -15 0 -33 97
-8 135 34 22 26 25 82 5 106 -10 12 -26 16 -62 13 -54 -3 -54 -3 -14 82 17 35
28 46 56 53 37 9 215 4 263 -8 24 -7 27 -5 27 17 0 83 -127 121 -280 83z
m-240 -85 c0 -5 -7 -10 -16 -10 -8 0 -12 5 -9 10 3 6 10 10 16 10 5 0 9 -4 9
-10z m77 -92 c-17 -40 -23 -46 -25 -29 -6 36 6 69 26 74 9 3 18 5 19 6 1 0 -8
-22 -20 -51z"/>
<path d="M772 781 c15 -31 18 -47 11 -68 -9 -26 -13 -28 -59 -25 -27 1 -100 4
-162 5 -91 2 -115 -1 -122 -13 -15 -24 -12 -29 25 -45 65 -27 82 -118 34 -179
-28 -35 -90 -66 -132 -66 -34 0 -35 -2 -42 -46 -4 -26 -2 -51 3 -56 19 -19
135 46 204 115 59 60 64 67 42 67 -21 0 -24 4 -24 38 0 21 -11 56 -25 81 -37
64 -34 72 28 69 28 -1 72 2 96 6 l44 8 -5 -31 c-5 -37 -2 -38 22 -9 12 16 29
22 59 23 53 1 64 13 47 47 -8 15 -17 40 -21 56 -3 17 -14 37 -25 47 -17 15
-17 14 2 -24z m-362 -441 c0 -13 -7 -20 -20 -20 -13 0 -20 7 -20 20 0 13 7 20
20 20 13 0 20 -7 20 -20z"/>
<path d="M2105 771 c-28 -17 -47 -43 -59 -83 -6 -20 -38 -23 -64 -7 -27 17
-152 2 -152 -17 0 -10 -12 -14 -41 -14 l-41 0 23 -19 c23 -19 24 -19 65 11 51
37 109 46 152 24 17 -9 34 -25 37 -36 10 -32 35 -6 35 36 0 48 43 93 105 109
l50 14 -40 0 c-22 0 -53 -8 -70 -18z"/>
<path d="M2275 760 c3 -5 8 -10 11 -10 2 0 4 5 4 10 0 6 -5 10 -11 10 -5 0 -7
-4 -4 -10z"/>
<path d="M2155 731 c-29 -13 -57 -47 -53 -67 7 -35 33 -39 83 -13 25 13 54 32
63 42 16 18 16 20 -3 33 -21 15 -59 17 -90 5z"/>
<path d="M927 665 c18 -8 38 -25 44 -38 l11 -25 42 24 c22 13 56 24 74 24 40
0 87 -23 96 -46 6 -15 9 -14 23 7 9 13 23 30 31 37 13 10 -7 12 -106 12 -102
0 -122 -2 -122 -15 0 -23 -30 -18 -56 10 -13 14 -33 25 -46 25 -20 -1 -18 -3
9 -15z"/>
<path d="M2318 671 c18 -5 44 -19 57 -31 l23 -22 22 22 c25 25 58 22 103 -11
l28 -20 45 21 c53 26 86 21 111 -16 18 -28 17 -33 -28 -162 -19 -54 -21 -69
-11 -96 7 -18 12 -40 12 -49 0 -42 -101 -63 -159 -33 -16 9 -33 11 -41 6 -27
-16 -112 11 -140 45 -12 14 -15 14 -34 -4 -31 -29 -91 -52 -134 -51 -20 1 -63
-2 -94 -6 -44 -5 -63 -3 -81 9 -22 14 -26 14 -41 -1 -23 -23 -120 -23 -163 0
-18 9 -33 13 -33 9 0 -10 46 -31 66 -31 8 0 17 -7 20 -15 5 -13 39 -15 215
-15 130 0 209 4 209 10 0 5 11 12 25 16 14 3 25 10 25 15 0 13 107 11 132 -2
22 -12 91 -23 207 -35 l64 -7 -9 44 c-15 75 -8 148 15 173 26 28 29 111 5 173
-19 49 -17 48 -224 58 -69 3 -147 8 -175 10 -42 4 -45 3 -17 -4z"/>
<path d="M1368 651 l-37 -6 25 -28 24 -29 29 31 c29 31 76 42 97 22 5 -6 16
-4 28 5 18 13 12 14 -55 13 -41 -1 -91 -5 -111 -8z"/>
<path d="M1612 640 c37 -19 38 -19 80 0 l43 19 -80 0 -80 1 37 -20z"/>
<path d="M1877 617 c-48 -29 -77 -72 -77 -114 0 -38 9 -48 70 -77 46 -22 67
-56 34 -56 -31 0 -103 40 -109 61 -11 34 -30 15 -33 -33 -3 -40 1 -48 27 -70
60 -51 148 -44 172 13 17 43 -1 74 -58 102 -36 17 -49 28 -51 47 -3 27 33 90
56 98 21 6 13 -32 -13 -68 -32 -43 -31 -50 3 -50 66 0 125 131 73 160 -30 15
-52 12 -94 -13z"/>
<path d="M2276 611 c-10 -11 -24 -17 -32 -14 -36 14 -111 -101 -121 -187 -5
-43 -3 -51 21 -75 47 -47 113 -20 174 71 46 68 60 68 54 2 -5 -62 5 -76 62
-85 35 -5 36 -5 36 28 0 43 34 113 65 133 29 19 29 20 10 -34 -8 -23 -15 -64
-15 -91 0 -43 3 -49 24 -55 13 -3 37 -4 52 -2 23 2 28 7 26 23 -14 81 -13 94
17 170 18 43 30 84 27 92 -13 34 -87 4 -159 -66 l-49 -46 23 48 c27 54 20 80
-23 85 -22 3 -28 -4 -49 -52 -17 -39 -30 -56 -43 -56 -14 0 -17 5 -12 23 7 29
-9 88 -26 99 -21 13 -44 9 -62 -11z m44 -51 c0 -20 -5 -30 -15 -30 -15 0 -21
40 -8 53 14 15 23 6 23 -23z m-46 -79 c16 -18 15 -20 -18 -56 -19 -20 -41 -35
-48 -33 -25 8 -21 68 8 126 l28 57 7 -37 c3 -21 14 -46 23 -57z"/>
<path d="M2076 582 c-32 -47 -76 -180 -76 -226 0 -41 23 -59 73 -54 26 2 31 7
29 23 -10 66 -3 118 26 180 34 71 33 87 -4 103 -22 11 -26 8 -48 -26z"/>
<path d="M1029 578 c-80 -62 -125 -202 -80 -247 16 -16 33 -21 75 -21 45 0 63
6 105 35 l52 34 9 -25 c12 -30 51 -47 84 -34 13 4 35 23 50 42 l26 33 0 -42
c0 -36 3 -43 24 -49 13 -3 37 -4 52 -2 23 2 28 7 26 23 -14 80 -13 95 13 156
36 86 39 103 22 117 -24 20 -45 4 -93 -77 -52 -85 -81 -121 -101 -121 -21 0
-15 47 14 112 29 65 25 90 -15 96 -25 4 -44 -23 -77 -105 -20 -49 -30 -62 -72
-85 -77 -44 -133 -35 -133 22 0 31 40 112 58 118 19 6 14 -42 -8 -71 -26 -33
-25 -47 3 -47 38 0 97 76 97 125 0 23 -30 45 -60 45 -17 0 -46 -13 -71 -32z"/>
<path d="M1526 563 c-29 -58 -56 -147 -56 -185 0 -20 8 -31 30 -43 16 -8 38
-15 50 -15 16 0 20 6 20 35 0 37 32 116 55 135 11 9 12 7 9 -8 -7 -26 19 -44
58 -40 27 2 32 7 30 25 -2 12 7 40 18 63 24 47 21 70 -10 70 -34 0 -75 -26
-114 -72 -36 -42 -36 -42 -25 -10 6 18 15 35 20 38 13 8 11 21 -7 38 -28 29
-52 19 -78 -31z"/>
<path d="M682 508 c-2 -42 -5 -48 -24 -48 -21 0 -21 -1 -5 -17 26 -26 39 -4
34 58 l-3 54 -2 -47z"/>
<path d="M145 440 c-3 -11 -10 -20 -14 -20 -4 0 -11 -56 -15 -125 -8 -160 -2
-176 81 -195 89 -20 274 -15 320 9 21 10 59 29 84 40 26 12 52 28 59 36 7 8
21 15 31 15 12 0 19 7 19 20 0 16 7 20 34 20 43 0 53 29 17 48 -34 17 -85 0
-137 -49 -54 -48 -83 -63 -191 -94 -119 -35 -233 -44 -268 -21 -41 27 -51 60
-30 92 12 18 15 37 12 61 -5 31 5 121 18 164 4 10 2 19 -4 19 -5 0 -13 -9 -16
-20z"/>
<path d="M1616 385 c-3 -11 -6 -35 -6 -52 0 -44 -33 -66 -79 -53 -26 7 -39 6
-55 -5 -11 -8 -33 -15 -49 -15 -24 0 -26 -2 -14 -14 15 -16 147 -27 147 -12 0
5 14 6 31 2 17 -3 39 -1 50 4 16 9 18 18 13 50 -9 54 2 90 26 90 10 0 24 -8
30 -17 11 -17 11 -17 6 0 -3 10 -6 22 -6 27 0 4 -20 10 -44 12 -38 3 -46 0
-50 -17z"/>
<path d="M1720 331 c0 -6 4 -13 10 -16 6 -3 7 1 4 9 -7 18 -14 21 -14 7z"/>
<path d="M886 305 c-3 -8 -17 -17 -31 -21 -29 -7 -31 -16 -10 -34 18 -15 79
-7 99 13 13 12 12 16 -10 25 -13 7 -24 16 -24 22 0 15 -17 12 -24 -5z"/>
<path d="M1117 289 c-21 -11 -58 -21 -82 -22 -25 -1 -45 -3 -45 -4 0 -2 16
-10 36 -18 51 -21 160 -20 172 1 7 13 18 15 43 10 100 -18 106 -18 112 -3 8
22 -35 42 -61 28 -31 -16 -63 -13 -100 9 -18 11 -33 20 -35 20 -1 -1 -19 -10
-40 -21z"/>
<path d="M945 108 c4 -13 10 -26 14 -30 17 -19 254 -47 391 -46 l105 1 -125 9
c-69 5 -179 16 -245 26 -111 16 -120 19 -123 40 -2 12 -8 22 -13 22 -6 0 -7
-10 -4 -22z"/>
<path d="M1157 115 c223 -41 514 -58 618 -35 29 6 3 8 -95 7 -136 -1 -347 14
-450 32 -30 5 -75 9 -100 9 -40 0 -38 -2 27 -13z"/>
<path d="M1858 113 c-10 -2 -18 -9 -18 -15 0 -6 11 -8 25 -4 64 15 80 17 65 7
-30 -19 -182 -52 -282 -60 l-103 -8 75 -1 c126 -2 256 15 300 40 58 34 59 48
2 47 -26 -1 -55 -3 -64 -6z"/>
</g>
</svg>
