<?xml version="1.0" standalone="no"?>
<!DOCTYPE svg PUBLIC "-//W3C//DTD SVG 20010904//EN"
 "http://www.w3.org/TR/2001/REC-SVG-20010904/DTD/svg10.dtd">
<svg version="1.0" xmlns="http://www.w3.org/2000/svg"
 width="310.000000pt" height="70.000000pt" viewBox="0 0 310.000000 70.000000"
 preserveAspectRatio="xMidYMid meet">

<g transform="translate(0.000000,70.000000) scale(0.100000,-0.100000)"
fill="#000000" stroke="none">
<path d="M1650 631 c0 -6 4 -13 10 -16 6 -3 7 1 4 9 -7 18 -14 21 -14 7z"/>
<path d="M1609 478 c-7 -22 -15 -36 -17 -29 -9 27 -20 8 -15 -27 5 -40 -18
-112 -36 -112 -6 0 -11 15 -11 33 0 21 -7 36 -20 45 -11 6 -29 31 -41 54 -27
54 -24 51 -47 39 -18 -10 -19 -14 -9 -43 7 -18 15 -35 18 -38 9 -8 39 -68 39
-79 0 -6 11 -26 24 -46 31 -45 25 -75 -15 -75 -22 0 -29 -5 -29 -20 0 -17 7
-20 38 -20 25 0 44 6 54 18 8 9 41 80 72 156 56 136 59 155 23 156 -5 0 -6 4
-2 9 3 5 1 12 -3 15 -5 3 -15 -13 -23 -36z"/>
<path d="M547 483 c-4 -3 -7 -78 -7 -165 l0 -158 25 0 c23 0 24 3 27 67 3 60
5 68 23 68 14 0 29 -17 52 -60 40 -77 94 -110 106 -64 4 15 0 23 -14 26 -12 3
-32 30 -49 63 l-29 57 26 56 c15 31 36 60 49 65 16 8 21 17 17 31 -12 45 -66
12 -107 -65 -22 -42 -37 -59 -51 -59 -18 0 -20 6 -18 60 1 32 -3 65 -9 72 -11
14 -31 17 -41 6z"/>
<path d="M1143 482 c-12 -7 -15 -71 -14 -239 1 -81 2 -83 26 -83 23 0 24 3 27
67 2 54 6 68 20 71 18 4 48 -43 48 -76 0 -30 45 -72 78 -72 21 0 32 7 40 25
11 23 10 25 -13 25 -25 0 -55 41 -55 75 0 8 -4 15 -9 15 -34 0 13 134 51 146
19 6 25 39 9 48 -23 15 -60 -16 -93 -76 -24 -43 -41 -63 -54 -63 -16 0 -19 8
-20 60 -1 33 -2 66 -3 73 -1 13 -20 16 -38 4z"/>
<path d="M1798 483 l-78 -4 0 -159 0 -160 24 0 c23 0 25 4 28 52 l3 53 65 5
c91 7 112 24 118 95 4 53 3 58 -29 91 -18 19 -38 33 -43 32 -6 -1 -46 -4 -88
-5z m98 -64 c13 -14 14 -26 7 -56 l-9 -38 -61 -3 -62 -3 1 53 c0 29 2 56 4 59
2 4 26 7 53 7 36 0 55 -6 67 -19z"/>
<path d="M2343 482 c-12 -7 -15 -71 -14 -239 1 -81 2 -83 25 -83 27 0 42 19
100 123 20 37 41 67 46 67 6 0 10 -42 10 -95 0 -94 0 -95 24 -95 22 0 24 4 28
58 2 31 1 103 -1 160 -3 99 -4 102 -27 102 -19 0 -33 -18 -79 -100 -31 -55
-60 -100 -65 -100 -5 0 -11 46 -12 102 -3 98 -9 116 -35 100z"/>
<path d="M252 457 c-13 -14 -22 -36 -22 -56 0 -28 3 -32 22 -29 14 2 24 11 26
23 5 27 30 45 65 45 49 0 67 -16 67 -60 l0 -40 -55 0 c-52 0 -55 -1 -55 -25 0
-24 3 -25 55 -25 l55 0 0 -33 c0 -18 -5 -38 -12 -45 -18 -18 -98 -15 -119 4
-20 18 -49 13 -49 -8 0 -7 15 -23 33 -35 44 -29 140 -23 176 12 22 22 24 29
22 136 -1 101 -4 116 -23 136 -19 20 -31 23 -93 23 -62 0 -74 -3 -93 -23z"/>
<path d="M847 452 c-26 -27 -27 -33 -27 -134 l0 -106 36 -31 c33 -30 38 -31
97 -26 46 5 68 12 85 28 20 20 21 25 8 42 -14 20 -15 20 -38 -2 -27 -26 -95
-32 -116 -11 -16 16 -16 200 0 216 33 33 118 3 118 -42 0 -12 7 -16 23 -14 34
5 34 44 1 79 -25 26 -34 29 -94 29 -60 0 -69 -3 -93 -28z"/>
<path d="M2046 449 c-24 -29 -26 -37 -26 -134 l0 -103 36 -31 c33 -30 38 -31
97 -26 45 5 68 12 84 28 20 20 20 24 8 41 -15 19 -15 19 -38 -2 -30 -28 -97
-30 -120 -4 -23 25 -24 168 -1 200 31 44 124 20 124 -32 0 -12 7 -16 23 -14
34 5 34 44 1 79 -25 26 -34 29 -95 29 -63 0 -69 -2 -93 -31z"/>
<path d="M2648 343 c-4 -176 -3 -183 31 -183 23 1 34 14 86 108 l60 107 3
-107 c3 -106 3 -108 26 -108 23 0 24 4 28 62 1 35 1 107 -1 161 -3 94 -4 97
-26 97 -19 0 -33 -17 -73 -87 -83 -146 -81 -145 -82 -20 0 107 0 107 -24 107
l-25 0 -3 -137z"/>
<path d="M1395 380 c-7 -12 8 -42 31 -61 12 -9 10 -3 -5 18 -13 17 -20 36 -17
42 4 6 5 11 2 11 -3 0 -8 -4 -11 -10z"/>
<path d="M1355 260 c10 -11 20 -20 23 -20 3 0 -3 9 -13 20 -10 11 -20 20 -23
20 -3 0 3 -9 13 -20z"/>
<path d="M934 15 c-17 -13 -13 -14 46 -14 59 0 63 1 46 14 -25 19 -67 19 -92
0z"/>
</g>
</svg>
